# AST/ASF file generated using VICON BodyLanguage
# -----------------------------------------------
:version 1.10
:name VICON
:units
  mass 1.0
  length 0.45
  angle deg
:documentation
   .ast/.asf automatically generated from VICON data using
   VICON BodyBuilder and BodyLanguage model FoxedUp or BRILLIANT.MOD
:root
   order TX TY TZ RX RY RZ
   axis XYZ
   position 0 0 0  
   orientation 0 0 0 
:bonedata
  begin
     id 1 
     name lhipjoint
     direction 0.702568 -0.596508 0.388042 
     length 2.56661 
     axis 0 0 0  XYZ
  end
  begin
     id 2 
     name lfemur
     direction 0.34202 -0.939693 0  
     length 6.58374  
     axis 0 0 20  XYZ
    dof rx ry rz
    limits (-160.0 20.0)
           (-70.0 70.0)
           (-60.0 70.0)
  end
  begin
     id 3 
     name ltibia
     direction 0.34202 -0.939693 0   
     length 6.62538   
     axis 0 0 20   XYZ
    dof rx
    limits (-10.0 170.0)
  end
  begin
     id 4 
     name lfoot
     direction 0.10455 -0.287249 0.952133   
     length 2.26699   
     axis -90 7.62852e-016 20   XYZ
    dof rx rz
    limits (-45.0 90.0)
           (-70.0 20.0)
  end
  begin
     id 5 
     name ltoes
     direction 1.53572e-011 -4.22322e-011 1   
     length 1.12949   
     axis -90 7.62852e-016 20   XYZ
    dof rx
    limits (-90.0 20.0)
  end
  begin
     id 6 
     name rhipjoint
     direction -0.728055 -0.574632 0.373811   
     length 2.66432  
     axis 0 0 0  XYZ 
  end
  begin
     id 7 
     name rfemur
     direction -0.34202 -0.939693 0   
     length 6.66732   
     axis 0 0 -20   XYZ
    dof rx ry rz
    limits (-160.0 20.0)
           (-70.0 70.0)
           (-70.0 60.0)
  end
  begin
     id 8 
     name rtibia
     direction -0.34202 -0.939693 0   
     length 6.59288   
     axis 0 0 -20   XYZ
    dof rx
    limits (-10.0 170.0)
 end
 begin
     id 9 
     name rfoot
     direction -0.119193 -0.327479 0.93731   
     length 2.38061  
     axis -90 -7.62852e-016 -20   XYZ
    dof rx rz
    limits (-45.0 90.0)
           (-20.0 70.0)
  end
  begin
     id 10 
     name rtoes
     direction -1.53547e-011 -4.21827e-011 1   
     length 1.17899   
     axis -90 -7.62852e-016 -20   XYZ
    dof rx
    limits (-90.0 20.0)
  end
  begin
     id 11 
     name lowerback
     direction -0.000416114 0.999912 -0.0132284   
     length 2.12109   
     axis 0 0 0   XYZ
    dof rx ry rz
    limits (-20.0 45.0)
           (-30.0 30.0)
           (-30.0 30.0)
  end
  begin
     id 12 
     name upperback
     direction -0.00136371 0.99809 0.0617608   
     length 2.10067   
     axis 0 0 0   XYZ
    dof rx ry rz
    limits (-20.0 45.0)
           (-30.0 30.0)
           (-30.0 30.0)
  end
  begin
     id 13 
     name thorax
     direction -3.43026e-005 0.997776 0.0666515   
     length 2.10618   
     axis 0 0 0   XYZ
    dof rx ry rz
    limits (-20.0 45.0)
           (-30.0 30.0)
           (-30.0 30.0)
  end
  begin
     id 14 
     name lowerneck
     direction 0.0398646 0.998418 0.0396592   
     length 1.83817   
     axis 0 0 0   XYZ
    dof rx ry rz
    limits (-20.0 45.0)
           (-30.0 30.0)
           (-30.0 30.0)
  end
  begin
     id 15 
     name upperneck
     direction -0.0367268 0.961527 -0.272244   
     length 1.81975   
     axis 0 0 0   XYZ
    dof rx ry rz
    limits (-20.0 45.0)
           (-30.0 30.0)
           (-30.0 30.0)
  end
  begin
     id 16
     name head
     direction -0.0182665 0.99536 -0.0944669  
     length 1.86026  
     axis 0 0 0   XYZ
    dof rx ry rz
    limits (-20.0 45.0)
           (-30.0 30.0)
           (-30.0 30.0)
  end
  begin
     id 17 
     name lclavicle
     direction 0.924239 0.361045 0.124212  
     length 3.26878  
     axis 0 0 0   XYZ
    dof ry rz
    limits (-20.0 10.0)
           (0.0 20.0)
  end
  begin
     id 18 
     name lhumerus
     direction 1 -4.48968e-011 -2.56583e-027   
     length 4.58538   
     axis 180 -30 -90   XYZ
    dof rx ry rz
    limits (-60.0 90.0)
           (-90.0 90.0)
           (-90.0 90.0)
  end
  begin
     id 19
     name lradius
     direction 1 -4.4898e-011 -5.50375e-027   
     length 2.68935   
     axis 180 -30 -90   XYZ
    dof rx
    limits (-10.0 170.0)
  end
  begin
     id 20
     name lwrist
     direction 1 -4.48939e-011 -1.48955e-026   
     length 1.34468   
     axis 9.0955e-015 90 90   XYZ
    dof ry
    limits (-180.0 0.0)
 end
  begin
     id 21 
     name lhand
     direction 1 -4.48936e-011 -2.97907e-026   
     length 0.585058   
     axis 1.90115e-014 90 90   XYZ
    dof rx rz
    limits (-90.0 90.0)
           (-45.0 45.0)
  end
  begin
     id 22 
     name lfingers
     direction 1 -4.49082e-011 -5.96235e-026   
     length 0.471689   
     axis 3.80223e-014 90 90   XYZ
    dof rx
    limits (0.0 90.0)
  end
  begin
     id 23
     name lthumb
     direction 0.707107 -6.3489e-011 0.707107   
     length 0.677253   
     axis -90 45 -3.84942e-014   XYZ
    dof rx rz
    limits (-45.0 45.0)
           (-45.0 45.0)
  end
  begin
     id 24 
     name rclavicle
     direction -0.923098 0.371783 0.0983239   
     length 3.19656  
     axis 0 0 0   XYZ 
    dof ry rz
    limits (-10.0 20.0)
           (-20.0 0.0)
  end
  begin
     id 25 
     name rhumerus
     direction -1 -4.48976e-011 -2.5492e-027  
     length 4.4745   
     axis 180 30 90   XYZ
    dof rx ry rz
    limits (-90.0 60.0)
           (-90.0 90.0)
           (-90.0 90.0)
  end
  begin
     id 26 
     name rradius
     direction -1 -4.48941e-011 -4.36555e-027   
     length 2.93896   
     axis 180 30 90   XYZ
    dof rx
    limits (-10.0 170.0)
  end
  begin
     id 27 
     name rwrist
     direction -1 -4.49044e-011 -1.49032e-026   
     length 1.46948   
     axis 9.0955e-015 -90 -90   XYZ
    dof ry
    limits (-180.0 0.0)
  end
  begin
     id 28
     name rhand
     direction -1 -4.48826e-011 -2.97749e-026   
     length 0.405092   
     axis 1.90115e-014 -90 -90   XYZ
    dof rx rz
    limits (-90.0 90.0)
           (-45.0 45.0)
  end
  begin
     id 29
     name rfingers
     direction -1 -4.49209e-011 -5.96602e-026   
     length 0.326596   
     axis 3.80223e-014 -90 -90   XYZ
    dof rx
    limits (0.0 90.0)
  end
  begin
     id 30
     name rthumb
     direction -0.707107 -6.34776e-011 0.707107   
     length 0.468928   
     axis -90 -45 3.84942e-014   XYZ
    dof rx rz
    limits (-45.0 45.0)
           (-45.0 45.0)
  end
:hierarchy
  begin
    root lhipjoint rhipjoint lowerback
    lhipjoint lfemur
    lfemur ltibia
    ltibia lfoot
    lfoot ltoes
    rhipjoint rfemur
    rfemur rtibia
    rtibia rfoot
    rfoot rtoes
    lowerback upperback
    upperback thorax
    thorax lowerneck lclavicle rclavicle
    lowerneck upperneck
    upperneck head
    lclavicle lhumerus
    lhumerus lradius
    lradius lwrist
    lwrist lhand lthumb
    lhand lfingers
    rclavicle rhumerus
    rhumerus rradius
    rradius rwrist
    rwrist rhand rthumb
    rhand rfingers
  end

#!OML:ASF H:\Punching\Project 1\Capture day 1\Session 1\female.ASF
:FULLY-SPECIFIED
:DEGREES
795
root -0.92561 14.7377 -2.71911 16.5771 -31.6336 -5.91926
lowerback -4.90644 3.16547 6.69582
upperback -6.08778 4.00131 -0.926771
thorax -3.06233 1.71162 -4.60221
lowerneck 7.2746 16.9923 29.037
upperneck 20.6585 29.0234 -21.8961
head 13.7067 14.7447 -8.57014
rclavicle -1.66669e-014 -1.86858e-014
rhumerus 4.79842 30.9128 -72.5693
rradius 124.715
rwrist -1.73077
rhand -35.2589 10.0469
rfingers 7.12502
rthumb -8.39461 -19.7663
lclavicle -1.66669e-014 -1.86858e-014
lhumerus -3.11402 -1.08893 59.0256
lradius 140.175
lwrist -3.48153
lhand -35.2587 1.55628
lfingers 7.12502
lthumb -8.3944 31.3695
rfemur -4.33779 7.67228 21.1622
rtibia 27.0917
rfoot -32.3656 -30.0678
rtoes -5.73595
lfemur -45.5161 6.57614 -2.20792
ltibia 43.187
lfoot -8.60427 21.7391
ltoes 14.4623
796
root -0.925639 14.735 -2.71394 16.6159 -31.5291 -5.97023
lowerback -5.11405 3.21928 6.95354
upperback -6.12607 4.05079 -0.914848
thorax -2.96755 1.72903 -4.72094
lowerneck 7.22876 16.9596 29.0167
upperneck 20.82 28.9821 -21.8249
head 13.7519 14.7254 -8.55407
rclavicle -4.52111e-014 -4.49253e-014
rhumerus 4.82439 30.9542 -72.6729
rradius 124.739
rwrist -1.70608
rhand -35.2011 10.0286
rfingers 7.12502
rthumb -8.33884 -19.7868
lclavicle -4.52111e-014 -4.49253e-014
lhumerus -3.10697 -1.18099 58.9465
lradius 140.101
lwrist -3.65944
lhand -35.3283 1.33103
lfingers 7.12502
lthumb -8.46161 31.1415
rfemur -4.24716 7.55494 21.2151
rtibia 26.9576
rfoot -32.3144 -30.0461
rtoes -5.81788
lfemur -45.6039 6.63493 -2.20059
ltibia 43.2655
lfoot -8.57862 21.6033
ltoes 14.2727
797
root -0.925103 14.7321 -2.70935 16.6298 -31.4304 -6.00818
lowerback -5.28041 3.27082 7.18948
upperback -6.15652 4.1 -0.904147
thorax -2.88851 1.74693 -4.83065
lowerneck 7.16743 16.9314 28.9899
upperneck 20.9607 28.9409 -21.7613
head 13.7917 14.7042 -8.53758
rclavicle -4.86774e-014 -1.15295e-014
rhumerus 4.85533 30.9874 -72.7564
rradius 124.757
rwrist -1.68618
rhand -35.1271 10.0076
rfingers 7.12502
rthumb -8.2674 -19.8106
lclavicle -4.86774e-014 -1.15295e-014
lhumerus -3.13443 -1.26366 58.8968
lradius 140.058
lwrist -3.83007
lhand -35.3399 1.10441
lfingers 7.12502
lthumb -8.47277 30.9144
rfemur -4.1446 7.44802 21.2573
rtibia 26.8352
rfoot -32.272 -30.0319
rtoes -5.90173
lfemur -45.6711 6.73124 -2.22796
ltibia 43.3352
lfoot -8.53876 21.4382
ltoes 14.0968
798
root -0.92426 14.7291 -2.70604 16.5999 -31.3408 -6.00998
lowerback -5.39638 3.31853 7.3761
upperback -6.17706 4.14883 -0.898382
thorax -2.82929 1.7661 -4.92036
lowerneck 7.08762 16.9061 28.9528
upperneck 21.0863 28.8962 -21.6993
head 13.8258 14.6791 -8.51886
rclavicle -2.11954e-014 -1.11319e-014
rhumerus 4.8917 31.0072 -72.8165
rradius 124.772
rwrist -1.67943
rhand -35.0405 9.99456
rfingers 7.12502
rthumb -8.18383 -19.827
lclavicle -2.11954e-014 -1.11319e-014
lhumerus -3.18047 -1.34888 58.8815
lradius 140.037
lwrist -3.97784
lhand -35.3113 0.874837
lfingers 7.12502
lthumb -8.44517 30.686
rfemur -4.03224 7.36432 21.2728
rtibia 26.7415
rfoot -32.2526 -30.0377
rtoes -5.96938
lfemur -45.7036 6.85308 -2.30646
ltibia 43.3779
lfoot -8.47331 21.2521
ltoes 13.9339
799
root -0.923273 14.7266 -2.70409 16.5139 -31.26 -5.95767
lowerback -5.45204 3.35555 7.49251
upperback -6.19511 4.19034 -0.89728
thorax -2.80537 1.78291 -4.97946
lowerneck 7.00719 16.8812 28.908
upperneck 21.2016 28.8499 -21.6389
head 13.854 14.6526 -8.49982
rclavicle -2.79168e-014 3.18055e-015
rhumerus 4.91749 31.0279 -72.8598
rradius 124.784
rwrist -1.68565
rhand -34.95 10
rfingers 7.12502
rthumb -8.09655 -19.8249
lclavicle -2.79168e-014 3.18055e-015
lhumerus -3.2637 -1.4412 58.9051
lradius 140.036
lwrist -4.09362
lhand -35.2597 0.641199
lfingers 7.12502
lthumb -8.3954 30.4543
rfemur -3.91064 7.30373 21.2477
rtibia 26.6858
rfoot -32.2621 -30.0681
rtoes -6.01958
lfemur -45.6936 6.98127 -2.44583
ltibia 43.3832
lfoot -8.38601 21.0616
ltoes 13.7845
800
root -0.922258 14.7247 -2.70366 16.3735 -31.1839 -5.84717
lowerback -5.45736 3.38178 7.53519
upperback -6.20742 4.22389 -0.90287
thorax -2.808 1.79756 -5.00753
lowerneck 6.92677 16.8552 28.8581
upperneck 21.3032 28.8007 -21.5856
head 13.8761 14.6243 -8.48333
rclavicle -3.2638e-014 -6.75868e-015
rhumerus 4.93657 31.044 -72.8879
rradius 124.794
rwrist -1.70364
rhand -34.8584 10.0157
rfingers 7.12502
rthumb -8.00812 -19.8126
lclavicle -3.2638e-014 -6.75868e-015
lhumerus -3.37371 -1.53935 58.9633
lradius 140.044
lwrist -4.18784
lhand -35.2177 0.40384
lfingers 7.12502
lthumb -8.35485 30.2186
rfemur -3.78443 7.26713 21.1804
rtibia 26.67
rfoot -32.3085 -30.1224
rtoes -6.03172
lfemur -45.6473 7.10326 -2.64441
ltibia 43.3498
lfoot -8.26738 20.8839
ltoes 13.6087
801
root -0.921233 14.7232 -2.70481 16.1955 -31.1028 -5.69673
lowerback -5.41689 3.39693 7.52331
upperback -6.22044 4.24841 -0.912074
thorax -2.84087 1.80845 -5.01219
lowerneck 6.85821 16.826 28.8099
upperneck 21.392 28.7496 -21.542
head 13.8924 14.5961 -8.47234
rclavicle 8.78752e-014 3.57812e-015
rhumerus 4.9374 31.0563 -72.9098
rradius 124.803
rwrist -1.72539
rhand -34.7744 10.0489
rfingers 7.12502
rthumb -7.92701 -19.7824
lclavicle 8.78752e-014 3.57812e-015
lhumerus -3.50193 -1.64891 59.0522
lradius 140.039
lwrist -4.28805
lhand -35.2146 0.170399
lfingers 7.12502
lthumb -8.35191 29.9853
rfemur -3.65825 7.2564 21.0905
rtibia 26.6875
rfoot -32.3852 -30.2088
rtoes -6.01453
lfemur -45.5808 7.20637 -2.87645
ltibia 43.2851
lfoot -8.12186 20.722
ltoes 13.412
